<mxfile host="Electron" modified="2023-08-30T05:08:24.485Z" agent="Mozilla/5.0 (Windows NT 10.0; Win64; x64) AppleWebKit/537.36 (KHTML, like Gecko) draw.io/21.6.5 Chrome/114.0.5735.243 Electron/25.3.1 Safari/537.36" etag="ja1LC-b2kOZvyEKanjP2" version="21.6.5" type="device">
  <diagram name="Page-1" id="xZqgrWqlpOD7o-coHHcW">
    <mxGraphModel dx="2058" dy="2280" grid="1" gridSize="10" guides="1" tooltips="1" connect="1" arrows="1" fold="1" page="1" pageScale="1" pageWidth="850" pageHeight="1100" math="0" shadow="0">
      <root>
        <mxCell id="0" />
        <mxCell id="1" parent="0" />
        <mxCell id="6X-t6zTy175KlrQr9nNa-2" value="" style="verticalLabelPosition=bottom;sketch=0;html=1;fillColor=#00CCCC;verticalAlign=top;align=center;pointerEvents=1;shape=mxgraph.cisco_safe.design.actor_2;" parent="1" vertex="1">
          <mxGeometry x="50" y="200" width="50" height="120" as="geometry" />
        </mxCell>
        <mxCell id="6X-t6zTy175KlrQr9nNa-3" value="" style="curved=1;endArrow=classic;html=1;rounded=0;" parent="1" edge="1">
          <mxGeometry width="50" height="50" relative="1" as="geometry">
            <mxPoint x="110" y="270" as="sourcePoint" />
            <mxPoint x="280" y="290" as="targetPoint" />
            <Array as="points">
              <mxPoint x="180" y="310" />
            </Array>
          </mxGeometry>
        </mxCell>
        <mxCell id="6X-t6zTy175KlrQr9nNa-4" value="Vil gerne på ferie,&lt;br style=&quot;font-size: 13px;&quot;&gt;weekendophold &lt;br style=&quot;font-size: 13px;&quot;&gt;el. llignende" style="text;html=1;align=center;verticalAlign=middle;resizable=0;points=[];autosize=1;strokeColor=none;fillColor=none;fontSize=13;" parent="1" vertex="1">
          <mxGeometry x="150" y="302" width="130" height="60" as="geometry" />
        </mxCell>
        <mxCell id="6X-t6zTy175KlrQr9nNa-23" style="edgeStyle=orthogonalEdgeStyle;rounded=0;orthogonalLoop=1;jettySize=auto;html=1;" parent="1" edge="1">
          <mxGeometry relative="1" as="geometry">
            <mxPoint x="359.5" y="390" as="targetPoint" />
            <mxPoint x="360" y="300" as="sourcePoint" />
            <Array as="points">
              <mxPoint x="359.5" y="340" />
              <mxPoint x="359.5" y="340" />
            </Array>
          </mxGeometry>
        </mxCell>
        <mxCell id="6X-t6zTy175KlrQr9nNa-5" value="" style="shape=image;verticalLabelPosition=bottom;labelBackgroundColor=default;verticalAlign=top;aspect=fixed;imageAspect=0;image=https://pas-wordpress-media.s3.amazonaws.com/content/uploads/2016/07/bigstock-Bed-Breakfast-accommodation-38715754-1.jpg;clipPath=inset(0.19% 21% 17.66% 0%);" parent="1" vertex="1">
          <mxGeometry x="295" y="420" width="128.69" height="120" as="geometry" />
        </mxCell>
        <mxCell id="6X-t6zTy175KlrQr9nNa-6" value="Bed and Breakfast" style="text;html=1;align=center;verticalAlign=middle;resizable=0;points=[];autosize=1;strokeColor=none;fillColor=none;" parent="1" vertex="1">
          <mxGeometry x="299.34" y="390" width="120" height="30" as="geometry" />
        </mxCell>
        <mxCell id="6X-t6zTy175KlrQr9nNa-7" value="Lejer" style="text;html=1;align=center;verticalAlign=middle;resizable=0;points=[];autosize=1;strokeColor=none;fillColor=none;fontSize=16;" parent="1" vertex="1">
          <mxGeometry x="45" y="317" width="60" height="30" as="geometry" />
        </mxCell>
        <mxCell id="6X-t6zTy175KlrQr9nNa-8" value="" style="curved=1;endArrow=none;html=1;rounded=0;startArrow=classic;startFill=1;endFill=0;" parent="1" edge="1">
          <mxGeometry width="50" height="50" relative="1" as="geometry">
            <mxPoint x="437" y="445" as="sourcePoint" />
            <mxPoint x="637" y="335" as="targetPoint" />
            <Array as="points">
              <mxPoint x="467" y="415" />
              <mxPoint x="587" y="345" />
            </Array>
          </mxGeometry>
        </mxCell>
        <mxCell id="6X-t6zTy175KlrQr9nNa-9" value="" style="verticalLabelPosition=bottom;sketch=0;html=1;fillColor=#00CCCC;verticalAlign=top;align=center;pointerEvents=1;shape=mxgraph.cisco_safe.design.actor_2;" parent="1" vertex="1">
          <mxGeometry x="680" y="260" width="50" height="120" as="geometry" />
        </mxCell>
        <mxCell id="6X-t6zTy175KlrQr9nNa-10" value="Udlejer" style="text;html=1;align=center;verticalAlign=middle;resizable=0;points=[];autosize=1;strokeColor=none;fillColor=none;fontSize=16;" parent="1" vertex="1">
          <mxGeometry x="670" y="380" width="70" height="30" as="geometry" />
        </mxCell>
        <mxCell id="6X-t6zTy175KlrQr9nNa-11" value="Person som står for stedet" style="text;html=1;align=center;verticalAlign=middle;resizable=0;points=[];autosize=1;strokeColor=none;fillColor=none;rotation=-30;fontSize=14;" parent="1" vertex="1">
          <mxGeometry x="437" y="340" width="190" height="30" as="geometry" />
        </mxCell>
        <mxCell id="6X-t6zTy175KlrQr9nNa-12" value="" style="shape=image;verticalLabelPosition=bottom;labelBackgroundColor=default;verticalAlign=top;aspect=fixed;imageAspect=0;image=https://www.indiafilings.com/learn/wp-content/uploads/2019/05/Types-of-Contract.jpg;clipPath=inset(4.67% 12.33% 5% 12.33%);" parent="1" vertex="1">
          <mxGeometry x="286.57" y="-140" width="133.43" height="160" as="geometry" />
        </mxCell>
        <mxCell id="6X-t6zTy175KlrQr9nNa-13" value="" style="shape=image;verticalLabelPosition=bottom;labelBackgroundColor=default;verticalAlign=top;aspect=fixed;imageAspect=0;image=https://t4.ftcdn.net/jpg/01/07/99/99/360_F_107999940_cWIzsBx0HOrei6vPC0341sjG0j5CjNoC.jpg;" parent="1" vertex="1">
          <mxGeometry x="313.29" y="20" width="80" height="60" as="geometry" />
        </mxCell>
        <mxCell id="6X-t6zTy175KlrQr9nNa-14" value="" style="curved=1;endArrow=classic;html=1;rounded=0;" parent="1" edge="1">
          <mxGeometry width="50" height="50" relative="1" as="geometry">
            <mxPoint x="90" y="190" as="sourcePoint" />
            <mxPoint x="290" y="60" as="targetPoint" />
            <Array as="points">
              <mxPoint x="110" y="140" />
              <mxPoint x="240" y="60" />
            </Array>
          </mxGeometry>
        </mxCell>
        <mxCell id="6X-t6zTy175KlrQr9nNa-15" value="" style="curved=1;endArrow=classic;html=1;rounded=0;" parent="1" edge="1">
          <mxGeometry width="50" height="50" relative="1" as="geometry">
            <mxPoint x="700" y="250" as="sourcePoint" />
            <mxPoint x="430" y="50" as="targetPoint" />
            <Array as="points">
              <mxPoint x="660" y="180" />
              <mxPoint x="500" y="70" />
            </Array>
          </mxGeometry>
        </mxCell>
        <mxCell id="6X-t6zTy175KlrQr9nNa-17" value="" style="edgeStyle=orthogonalEdgeStyle;rounded=0;orthogonalLoop=1;jettySize=auto;html=1;startArrow=classic;startFill=1;endArrow=none;endFill=0;" parent="1" source="6X-t6zTy175KlrQr9nNa-16" edge="1">
          <mxGeometry relative="1" as="geometry">
            <mxPoint x="360" y="160" as="targetPoint" />
          </mxGeometry>
        </mxCell>
        <mxCell id="6X-t6zTy175KlrQr9nNa-16" value="Konktrat om ophold" style="text;html=1;align=center;verticalAlign=middle;resizable=0;points=[];autosize=1;strokeColor=none;fillColor=none;" parent="1" vertex="1">
          <mxGeometry x="295" y="70" width="130" height="30" as="geometry" />
        </mxCell>
        <mxCell id="6X-t6zTy175KlrQr9nNa-18" value="" style="curved=1;endArrow=classic;html=1;rounded=0;" parent="1" edge="1">
          <mxGeometry width="50" height="50" relative="1" as="geometry">
            <mxPoint x="425" y="-100" as="sourcePoint" />
            <mxPoint x="505" y="-160" as="targetPoint" />
            <Array as="points">
              <mxPoint x="425" y="-100" />
              <mxPoint x="435" y="-130" />
            </Array>
          </mxGeometry>
        </mxCell>
        <mxCell id="6X-t6zTy175KlrQr9nNa-19" value="Betaling for opholdet" style="text;html=1;align=center;verticalAlign=middle;resizable=0;points=[];autosize=1;strokeColor=none;fillColor=none;fontSize=16;" parent="1" vertex="1">
          <mxGeometry x="500" y="-190" width="170" height="30" as="geometry" />
        </mxCell>
        <mxCell id="6X-t6zTy175KlrQr9nNa-20" value="" style="curved=1;endArrow=classic;html=1;rounded=0;" parent="1" edge="1">
          <mxGeometry width="50" height="50" relative="1" as="geometry">
            <mxPoint x="640" y="360" as="sourcePoint" />
            <mxPoint x="440" y="480" as="targetPoint" />
            <Array as="points">
              <mxPoint x="610" y="400" />
              <mxPoint x="500" y="480" />
            </Array>
          </mxGeometry>
        </mxCell>
        <mxCell id="6X-t6zTy175KlrQr9nNa-21" value="Kan ommøblere, &lt;br style=&quot;font-size: 13px;&quot;&gt;bygge nye rum&lt;br style=&quot;font-size: 13px;&quot;&gt;og udvide stedet" style="text;html=1;align=center;verticalAlign=middle;resizable=0;points=[];autosize=1;strokeColor=none;fillColor=none;fontSize=13;" parent="1" vertex="1">
          <mxGeometry x="530" y="445" width="120" height="60" as="geometry" />
        </mxCell>
        <mxCell id="6X-t6zTy175KlrQr9nNa-24" value="" style="shape=image;verticalLabelPosition=bottom;labelBackgroundColor=default;verticalAlign=top;aspect=fixed;imageAspect=0;image=data:image/jpeg,/9j/4AAQSkZJRgABAQAAAQABAAD/2wCEAAkGBxITEg8SEg8QDxUPFRUVFRUVFRUVFRUVFRYWFhUVFRUYHiggGBolGxUVITEhJSkrLi4uFx8zODMtNygtLisBCgoKBQUFDgUFDisZExkrKysrKysrKysrKysrKysrKysrKysrKysrKysrKysrKysrKysrKysrKysrKysrKysrK//AABEIAOEA4QMBIgACEQEDEQH/xAAcAAEAAgMBAQEAAAAAAAAAAAAAAQIFBgcEAwj/xABZEAABAwMAAwYMEAkKBwAAAAABAAIDBAURBhIhBxMxQVFxIjJVYXOBkZWhscHTFBUkQkVSVISFkpSys8LS1CU0VmJypMPR5BYXNUNEZHSDk+EjM0ZTdsTw/8QAFAEBAAAAAAAAAAAAAAAAAAAAAP/EABQRAQAAAAAAAAAAAAAAAAAAAAD/2gAMAwEAAhEDEQA/AO4EqAFOFKAiIgIoypQRhSiICIoKCCVICAKUBERAVSrIggBSiICglCowgKwQBEBERBBUAKyICIiAiIgIiICqShKAIACsiICIqkoLIoClAREQMqqKQEEoiICKCVAKCyIiAiKCUAlAVACsgIiICKMqUBERAUFSiCoCsiICIqlAJUgIApQEREBVVioAQAFKIgKCUJUBACsAiICIiCCVATCsgIiICqShKAIACsiICIiCApREBEUZQSowtL3ZKqSK0Vr4nvjcN6GswlrgHTRtcARtGQSO2tD3Ptz6Stoaerfd7hCZtfoGSHA1ZHMGCT+blB3FFzSTcte0Zbebw88gqdXwkLFT6BVzc6tRen/CUTfG1B2BQCuLnRS6t6X08d8LU/lYqCy3ocFPfT8M0Y/ZFB2xFxVtrvg/st8PPeqPzC+goL37ivPfqk8yg7Mi4w6gvfuK8j4apPMr5m1Xz3LfB8N0fmEHaiFK4ibPfPc18790fmVHpRfPc1879UnmUHb0XD/S2+D+y3w/DFKfFCm+X2PJ9AXZ2NvRXCN/zYwg7hlFy/cr01dWsnfNv0e8SQRtzLrteZy4NG1oOQRt5wuoICIiAoKlEFQFZEQERVJQWRURBdEVSUAlSAgClBp269HrWe4DkY0/FkYfIsBuXVZZHYoM9DJQVryOVxqYC0nmGv3Stn3UW5tNy7A7wYK0rQV+KrRxvLapT3XtPkQdeJVUKkBAAUoiAoJQlQgKyBEBEUEoBKjCAKyD847n0joKJnEX3uiicf0OiI8BX6OX5vtp9RMx+UcX0bl+kEBVJVZpQ0Oc4hrWglxJwABtJJ4gtOZuqWcuLfTBmWnGTHMGnHI4swRzFBugUrWYd0G1O4LlSj9KQM+dhZegvVNNjeamCbPBqSMdnmwUHvRFUlAJUgIApQEREFXKQFKICIiDV91D+ibl2B3kXP8AQyXFfoyOW1PH0h+qt/3Tv6KuXYH+Rc00Rf8AhTRdvJbD4WVJ8iDuiIiAoKlEFVYIiAiKCUEooClAREQfm21/iLP/ACKH6Jy/SBK/OkEeKHm0laO5EV+jMIMLpkzNvuI5aSoHdhetQ3MdGoHWmhkjgpGTSMc50slO2VziXv4SSDycfEt50kbmkrBywTDuxuWvbnFO59mt7WTSQEwjD4xGXDa7gEjXN7oQWGj1zaTvdzo4xxAW5o8O+r22qmuMU7BUVkNVC5khdq028FjmlmptEjs5y7Z1l8ptGas7fTyvH+XRjxQhfOG11dO/Xfcqiri3qYyNlZAACGt1CCxgOem40GfstcJ6emnGwVEUcv8AqMDvKvYAtd3OX5tdsP8AdoR3GAeRbGgIiICIiAiIgZVUUgINb3SG/gq5/wCGlPcaSuT6MuxeNF+vbIx3Yqpdc3Qx+C7n/hZ/o3Lj1jfi86Mj2tuph8aCY/WQfoJQShKhBIKlAiAiKCUAlQAgVkBERAUZUEoAg/P9RDq0Y/O0nPga5vkX6CXDdLIDHSRAjGtpHM8c2+TAHuLuSDw3z8Wquwy/Mcte3OIS+z25okfFmBvRM1dYbTwawI8C2G+fi1V2GX5jlgty4/gm29gb4ygmXRKVxz6c3Ycz6YDwQBeaps1TT7870fWVUJpKrXbUGJ2JAI96LdSNpGzfc8PAFuQC8GkP4rV9gl+Y5Bhty12bTbewNHcJHkW0rVNyv+ibb2EeMrayUBFUqQglERAUEICpQQApREGK0rg3yiro8Z16eZoHXMbgF+frtXNobxaZJS7Uo6Wha/VGTqtp2tdgcfCV+lJYw4OaeBwIPMdhWHvGjFNUam+U9O9zBqtc+CGVwbyAytdgINUZuzWg8M8zeeF/kyvUzdgsvu0jngqPIxfSXQBwOYa1tOORtBbyPoc+FeaTQOu9bfHM95Uo+aAg9LN1uzH+3jtw1A8ca+zd1Kzn2Qj+JKPqLFHQa7et0jePecXkcn8ibx+UsnyRn20GX/nPs/VGL4sn2VX+c6z9UYviyfZWEqNFbrG6Fr9JpAZ372z1JHteGPkx0/tY3ntL1/yKu35Ry/JYvtIMgd1Gzj2Qj+JL9lV/nVs3VBn+nN9hY86FXf8AKST5JH9ped2id1EjIjpM/Xe17w30JHksYWNcen4jIzuoM2zdQs59kYu22QeNq9kOndtf0ldE7m1v3LBDQu7cekc3apYh9ZXGht1/KOf5NF+9BttFeaeUgRzxvJ4gdvcWRXP36G3fi0km+SxfaXnl0GvJ/wCppu1TBvikQY/dvjbFBbQ3gNwEp53a7j4XFdYXGbtuQ3KpLBUX19Q1jtYb42R2qfbNaX4zjmXZQg8GkB9S1fWgl+Y5a3uYVrRb7TCenkpXyD9GJ7Gu8MrVsmkI9S1fYJfo3Lm+55UYl0fZ7a2VPhmiP1EHWFjtIvxSs7BN9G5ZFY3SU+o6z/DzfRuQYXcpP4It3YvrOW1FahuSHNot3Y3fSPC3ABAAUoiAiIggBSiICjKEqEFkREBEUEoBKgBAFj9ILsKWB0xikmw6NgZHq67nSyNiYBrEDpnjhKDF6XtO/wBlx7u2/JKryArZlplbpBVF0TjYK5xheXs/4tLscWPjzskPrZHDtqh0zrvyfr/jw/vQbstYqwfTmk5PQFV9PS/7LzRaWVrvYGuH+ZTDxvC9VPc5nyskdZ66N7GPYHGSiIDZCxzgcT54Y28XEg2ZFSKTIGWlpxktJGRz6pI4uVXQERVJQCVIQBSg8d4bmnqByxSDusK5JoS/VrtHWk4AtD3Engw5zz5F2SVmWuHKCO6Fx62RshuthgmLW6tmbG7J1QSWyAjJ/Rcg32waTzVYE0NC70I5xDJXyBksjQdXfGQFvSbD0zg4gcCyWlTsUVceSmn+jctb0ftN0pom0UUtHJTx5bDVOL9/ZCeAOhDdR725wDrAbBnjBz2lcYZbq5ozhlJMBxnAicAgw+46c2e3/oSDuTSBbmtI3FXZstv5ph3KiULd0BQShUIGtzImqiCyglCq4QSrIiAiKssjWguc4Na0ZJJAAHKSeBBJKgBapV6ZiTWbb4HV5BwZ+iZRsOcbZsEy80Qd1yFajuFSGDfq2HX4xFQ1GoOsNZxJ59nMg2tfKoga8arhkazXY67HB7fC0LX/AE1d7s/Up/3obyRw1f6lP+9BlrhSTv8A+VVGD/LY/wCcsTLZ7gelu5HvSE+VVN9Huv8AUqhR/KBvus/IqhB8JNH7qeC+6vvGE/WX2p7Hcx0161/ecDfKVcX4e6j8iqFYXr+9fqU6D32m1yxySyy1T6l0rI2bWMY1ojMhGGt4yZTk9YLKrWJ9IGMAMldHEHODQZKaVjS52wDWcQMlXvFfVRbGOjmcOEGGdo7TmMkBQbESpAWmUGklUXASxNjbnbqx1Tjjrep8ZXpGlMsbiJad08fCJYGSCVrfbSUkgEmqPbR6/Hsag2tF47XdYKhm+QTRzN4MsIODyOHC09Y7V7EBabppoVT1sjJn0MFVJGwMBkqp6caocXBp3pjgRlzu6twXxrKyKFhklljhY3he9wY0c7nHCDnNPotUU2XU1gtLXcR9FyPd3XxDxrzX6o0lmgmpm2qijZOx0RLJWkta8apxmQAbCeJbBcN1mzxEtNaJCP8AtRySD44bqntFUod12zyODfRZiJ4DJHI1vbdjA7ZCDL7ndhkobdSUsrmukhDy4tzq5kkfJgE8ONfGestiJVKedj2tex7ZGvGWuaQ5rgeAgjYQrYQFICAKUBERAReSpr2skiiLXky5wQ3LRjlPbHlwvWgKssjWguc4Na0ZJJAAA4SSeAKywdwoXPxmeY6pyAYIngEcBwWYz10Hmm0jmm6G30xnHumYmKlHXY7GvOP0Bqn2yxkujb5Ha9eyquzmnLYwaeKjaRwFlOZRr88useZZGWnqeK4VjeakgPjjXkkpaziutePeNOf2SD7TOkAAba7oANgDKunYAOsPRQwF43tnPsbexzXCnH/tqHU1d1XuHe6A/sl8zT1/Vi497YPNIKvp5+p1+7Vxh+9L4vpZup+kHfKP70vqYq/qvcu9kPmlQiu6r3XtWqLzKD4OpZup+kXfJn3lV9Cz9T9Iu+bfvK+xmrR7KXc81pj8yvm6srB7J3rvOw+KBAbSTdT9Iu+bfvK+zaWbqfpB3yj+9LzemNX1TvfeX+HT0xq+qd77yfw6D2Po5XNc026+kOGCDcICO46qwe2FSzXh8MlPb7hFctaokeIKiZ0Ya4EFzY5JaeYgybHAcfS7Avg2uqz7KXoc9l/h1Z76p4Adcrs4AhwDrOzALTlpwafYQQCD1kGXuloaCdW23Gfrx15jz3apqxbbc9py2x3U49tdQfAasq4lrOqt270s8wrg1nVW6964/MoPBPZpnP32O03Sll4pY6ujMo6xkdPmRv5suuMbAGr1UultwpdVlfRSzt4pI2MbUY5Xwsc6OU4BJ3p+QBtYF9t7rjwXe5j4Mh8yvnLRV7hg3i4kchtkBHLwb2g23R/SKkrGa9LURzY6YA4ezrPjOHN7YX1utHEcSupY6h0fKxr5Azj1MjORw4HDzrlly3PZJpxUuuVe2cf1sdvEL+cui1ST1ztXQ9DoKljHsqKyWs1dXUdLTeh3gbcgnP8AxOLbjPPlBmKMxPY10W9uY7gLQMch5jnZhY+9aKUNU0tqKOCXPrtQB4z7WRuHNPMUuNky50tNO6jmdtc5oD4pTjA3+E7H8XRAtfsA1sbFjZb5cIPxi2GqaP62heHZ56eUte3mDn8/KGjPoqjRypjkZLJUWqpkDJWO6J1M53A/u+uGxwyCM6pXY2uBAIOQdoPKFzLTTSd1bR1NHFZrvI+pYWtMlI6ONjwQ5jnucdmCAecLfNGqaSKko4pTmSKCJjz+e2Nod4QUGSREQEREGv3sD0VRZPAeDoNoJwOE52OLTjB48cC2BYC9vHomjbrY13DI6LPQnWGwDVOSANpyOLjKz6CCVATCsgIiICqShKAIACsiICIqlAJUgIApQEREBVyikBAClEQFBKEqqCVICAKUBEUEoBKNUAKyAiIgwt2kjFRTZMe+DO9gukDui2O6FuwjA9dyFZpYC9T+qaNn52TzFzQM8oyOYHV6wOfQEREBQ5SiCoCsiICIqkoLIgRAREQFVWUYQAFKIgIoJQFBJUAKUQEREEEqAFOFKAiIgIoypQYW81L2z0bWl7WuedYhzQ13ANUjhPCO7jj2ZpYm50D3z00jQNWI9EdZwdjb63gxnG3hwSOfLICqShKAIJClEQERVJQCVICAKUBERAKgFQpAQSiIgKChKhBCsApCICIoJQMqVUBWQEREBVJUkqAEEYRXRAQoiCoVkRAREQQVVv8A94URBdERAUFEQQ1WREBERBUqQiIJREQFU8aIgkKURAQoiCv+6siICIiD/9k=;clipPath=inset(24.22% 10% 21.11% 9.56%);" parent="1" vertex="1">
          <mxGeometry x="295" y="182.5" width="154.51" height="105" as="geometry" />
        </mxCell>
        <mxCell id="6X-t6zTy175KlrQr9nNa-27" value="" style="curved=1;endArrow=classic;html=1;rounded=0;" parent="1" edge="1">
          <mxGeometry width="50" height="50" relative="1" as="geometry">
            <mxPoint x="640" y="280" as="sourcePoint" />
            <mxPoint x="470" y="240" as="targetPoint" />
            <Array as="points">
              <mxPoint x="560" y="240" />
            </Array>
          </mxGeometry>
        </mxCell>
        <mxCell id="6X-t6zTy175KlrQr9nNa-28" value="&lt;font style=&quot;font-size: 15px;&quot;&gt;Log ind&lt;/font&gt;" style="text;html=1;align=center;verticalAlign=middle;resizable=0;points=[];autosize=1;strokeColor=none;fillColor=none;" parent="1" vertex="1">
          <mxGeometry x="530" y="220" width="70" height="30" as="geometry" />
        </mxCell>
        <mxCell id="6X-t6zTy175KlrQr9nNa-29" value="&lt;font style=&quot;font-size: 15px;&quot;&gt;Website&lt;/font&gt;" style="text;html=1;align=center;verticalAlign=middle;resizable=0;points=[];autosize=1;strokeColor=none;fillColor=none;" parent="1" vertex="1">
          <mxGeometry x="320" y="152.5" width="80" height="30" as="geometry" />
        </mxCell>
        <mxCell id="6X-t6zTy175KlrQr9nNa-30" value="" style="curved=1;endArrow=classic;html=1;rounded=0;" parent="1" edge="1">
          <mxGeometry width="50" height="50" relative="1" as="geometry">
            <mxPoint x="130" y="250" as="sourcePoint" />
            <mxPoint x="280" y="200" as="targetPoint" />
            <Array as="points">
              <mxPoint x="150" y="230" />
              <mxPoint x="230" y="200" />
            </Array>
          </mxGeometry>
        </mxCell>
        <mxCell id="6X-t6zTy175KlrQr9nNa-31" value="&lt;font style=&quot;font-size: 15px;&quot;&gt;Log ind&lt;/font&gt;" style="text;html=1;align=center;verticalAlign=middle;resizable=0;points=[];autosize=1;strokeColor=none;fillColor=none;" parent="1" vertex="1">
          <mxGeometry x="150" y="182.5" width="70" height="30" as="geometry" />
        </mxCell>
      </root>
    </mxGraphModel>
  </diagram>
</mxfile>
